<svg id="Capa_1" enable-background="new 0 0 512 512" height="512" viewBox="0 0 512 512" width="512" xmlns="http://www.w3.org/2000/svg"><g><path d="m407.266 104.734v-104.734h-302.532v104.734h-104.734v302.531h104.734v104.735h302.531v-104.734h104.735v-302.532zm74.734 272.532h-104.734v104.734h-242.532v-104.734h-104.734v-242.532h104.734v-104.734h242.531v104.734h104.735z"/><path d="m298.345 203.386h-84.69c-6.473-21.727-26.634-37.614-50.437-37.614-29.012 0-52.614 23.603-52.614 52.614 0 14.724 6.08 28.055 15.86 37.614-9.78 9.559-15.86 22.891-15.86 37.614 0 29.012 23.603 52.614 52.614 52.614 23.802 0 43.963-15.887 50.437-37.614h84.69c6.474 21.727 26.635 37.614 50.437 37.614 29.012 0 52.614-23.603 52.614-52.614 0-14.724-6.08-28.055-15.86-37.614 9.78-9.559 15.86-22.891 15.86-37.614 0-29.012-23.603-52.614-52.614-52.614-23.803-.001-43.964 15.887-50.437 37.614zm73.051 15c0 12.47-10.145 22.614-22.614 22.614v30c12.47 0 22.614 10.145 22.614 22.614s-10.145 22.614-22.614 22.614-22.614-10.145-22.614-22.614v-15h-140.335v15c0 12.47-10.145 22.614-22.614 22.614s-22.614-10.145-22.614-22.614 10.144-22.614 22.613-22.614v-30c-12.47 0-22.614-10.145-22.614-22.614s10.145-22.614 22.614-22.614 22.614 10.145 22.614 22.614v15h140.334v-15c0-12.47 10.145-22.614 22.614-22.614s22.616 10.144 22.616 22.614z"/></g></svg>